<?xml version="1.0" standalone="no"?>
<!DOCTYPE svg PUBLIC "-//W3C//DTD SVG 20010904//EN"
 "http://www.w3.org/TR/2001/REC-SVG-20010904/DTD/svg10.dtd">
<svg version="1.0" xmlns="http://www.w3.org/2000/svg"
 width="572.000000pt" height="572.000000pt" viewBox="0 0 572.000000 572.000000"
 preserveAspectRatio="xMidYMid meet">
<metadata>
Created by potrace 1.11, written by Peter Selinger 2001-2013
</metadata>
<g transform="translate(0.000000,572.000000) scale(0.100000,-0.100000)"
fill="#000000" stroke="none">
<path d="M2588 5350 c-7 -16 -16 -30 -20 -30 -5 0 -8 -4 -8 -9 0 -8 -79 -144
-485 -836 -87 -148 -164 -280 -169 -292 -6 -13 -14 -23 -18 -23 -5 0 -8 -6 -8
-14 0 -8 -6 -21 -12 -28 -7 -8 -20 -27 -29 -43 -9 -17 -85 -147 -169 -290 -84
-143 -160 -274 -170 -291 -10 -17 -73 -125 -141 -240 -67 -115 -128 -219 -133
-231 -6 -13 -14 -23 -18 -23 -5 0 -8 -4 -8 -9 0 -6 -30 -61 -66 -123 -37 -62
-74 -126 -84 -143 -9 -16 -39 -66 -65 -110 -26 -44 -55 -93 -65 -110 -33 -58
-536 -917 -606 -1035 -18 -30 -55 -93 -82 -140 -144 -249 -207 -356 -213 -360
-11 -8 -21 -50 -12 -50 4 0 24 19 43 41 19 22 51 58 70 78 38 40 168 184 197
218 15 17 113 124 196 215 41 45 182 200 202 222 115 128 183 203 200 221 11
11 40 43 64 70 25 28 86 95 136 150 51 55 118 129 150 165 32 36 98 108 146
160 48 52 97 106 109 120 20 23 132 146 190 210 29 31 173 190 240 264 25 28
54 60 65 72 11 11 52 56 90 99 39 44 86 96 105 116 19 20 67 72 105 115 39 43
81 89 94 104 13 14 52 57 88 96 82 92 122 134 127 134 3 0 94 -143 199 -315 7
-11 24 -39 40 -62 15 -23 27 -46 27 -52 0 -6 4 -11 9 -11 5 0 11 -8 15 -17 3
-10 15 -31 26 -48 11 -16 23 -37 27 -45 3 -8 9 -17 12 -20 3 -3 11 -14 18 -25
32 -53 80 -131 101 -164 12 -20 26 -45 31 -56 5 -12 16 -27 25 -34 9 -7 16
-20 16 -27 0 -8 5 -14 10 -14 6 0 10 -5 10 -11 0 -6 14 -31 30 -56 17 -24 30
-46 30 -49 0 -2 20 -35 43 -72 103 -158 117 -182 117 -192 0 -5 3 -10 8 -10 4
0 16 -17 27 -37 11 -21 36 -63 56 -93 57 -87 119 -191 119 -200 0 -5 4 -10 8
-12 8 -3 47 -64 119 -186 12 -20 27 -44 33 -52 17 -24 258 -413 273 -440 7
-14 49 -81 92 -150 118 -190 146 -233 166 -262 11 -15 19 -30 19 -32 0 -3 20
-37 45 -76 50 -78 52 -85 28 -86 -21 -1 -151 -16 -243 -29 -19 -3 -54 -7 -77
-10 -24 -3 -62 -7 -85 -10 -24 -3 -61 -8 -83 -11 -22 -2 -56 -6 -75 -9 -19 -3
-53 -7 -75 -9 -22 -3 -56 -7 -75 -10 -19 -3 -57 -8 -85 -11 -27 -3 -61 -8 -75
-10 -14 -2 -50 -6 -80 -9 -30 -3 -64 -8 -75 -10 -11 -2 -49 -7 -85 -10 -36 -4
-76 -8 -90 -10 -27 -4 -105 -15 -155 -21 -16 -2 -55 -7 -85 -10 -30 -4 -64 -9
-75 -10 -11 -2 -47 -7 -80 -10 -33 -4 -71 -8 -85 -10 -14 -3 -49 -7 -78 -10
-29 -2 -63 -7 -75 -10 -12 -3 -48 -7 -81 -10 -32 -3 -61 -7 -65 -9 -3 -2 -42
-7 -85 -11 -43 -4 -88 -9 -100 -11 -12 -2 -46 -7 -76 -9 -30 -3 -66 -8 -81
-10 -29 -5 -68 -10 -149 -20 -56 -6 -68 -8 -155 -19 -129 -17 -194 -25 -240
-30 -27 -3 -61 -8 -75 -10 -14 -2 -50 -7 -80 -10 -30 -4 -68 -8 -85 -11 -16
-3 -52 -7 -80 -10 -27 -2 -59 -6 -70 -9 -11 -2 -47 -7 -80 -10 -128 -15 -151
-18 -180 -22 -16 -3 -50 -7 -75 -10 -25 -3 -56 -6 -70 -9 -14 -2 -50 -6 -80
-10 -30 -3 -73 -8 -95 -11 -55 -8 -92 -13 -150 -19 -27 -3 -61 -8 -75 -10 -14
-2 -50 -7 -80 -10 -93 -10 -135 -16 -140 -22 -3 -3 1143 -2 2545 1 3158 8
3055 8 3055 16 0 4 -25 47 -56 96 -31 49 -65 105 -76 124 -11 19 -51 84 -89
143 -38 60 -69 113 -69 118 0 5 -4 9 -10 9 -5 0 -10 4 -10 10 0 8 -92 161
-169 280 -9 14 -20 33 -26 43 -15 25 -193 314 -232 374 -18 29 -32 55 -31 57
2 2 -7 15 -18 28 -12 13 -23 28 -25 34 -2 5 -58 96 -124 202 -66 106 -125 200
-130 210 -17 28 -122 200 -183 298 -64 103 -219 352 -243 392 -9 15 -99 160
-199 322 -101 162 -192 311 -204 330 -11 19 -24 37 -28 38 -4 2 -8 7 -8 12 0
4 -18 37 -39 71 -22 35 -77 125 -122 199 -88 144 -133 216 -149 240 -19 29
-233 376 -283 460 -28 47 -54 87 -57 90 -3 3 -13 19 -23 35 -16 28 -114 189
-147 241 -95 151 -236 381 -239 389 -2 5 -13 20 -24 33 -11 12 -17 22 -14 22
4 0 -9 22 -28 50 -19 27 -35 54 -35 60 0 22 -29 8 -42 -20z"/>
<path d="M2517 2444 c-1 -1 -22 -5 -47 -8 -97 -13 -163 -35 -242 -79 -123 -69
-190 -164 -182 -257 9 -93 82 -148 219 -166 11 -1 22 -3 25 -4 3 0 -20 -9 -50
-19 -80 -26 -128 -49 -195 -97 -69 -49 -86 -67 -116 -126 -31 -61 -30 -154 2
-200 52 -73 107 -92 266 -91 128 1 185 14 300 69 100 48 165 103 182 157 11
32 22 157 14 157 -6 0 -167 -84 -173 -90 -7 -8 -119 -56 -160 -69 -80 -24
-196 -30 -242 -12 -40 15 -35 42 14 91 54 53 161 103 263 125 132 28 188 46
222 71 55 42 53 116 -4 128 -31 7 -127 15 -247 21 -175 9 -181 61 -16 138 57
26 85 33 185 43 l60 6 -22 -23 c-21 -23 -42 -96 -25 -85 9 5 63 28 72 31 20 4
147 71 161 84 43 40 53 125 19 166 -25 30 -62 38 -173 40 -59 1 -108 0 -110
-1z"/>
</g>
</svg>
