<?xml version="1.0" encoding="UTF-8" standalone="no"?>
<!DOCTYPE svg PUBLIC "-//W3C//DTD SVG 20010904//EN"
              "http://www.w3.org/TR/2001/REC-SVG-20010904/DTD/svg10.dtd">

<svg xmlns="http://www.w3.org/2000/svg"
     width="1.49in" height="1.31333in"
     viewBox="0 0 447 394">
  <path id="Sans nom #3"
        fill="#6351ce" stroke="black" stroke-width="1"
        d="M 205.18,122.91
           C 205.18,122.91 203.73,0.73 203.73,0.73
             203.73,0.73 -0.50,349.50 -0.50,349.50
             -0.50,349.50 205.18,122.91 205.18,122.91 Z" />
  <path id="Sans nom #2"
        fill="#6351ce" stroke="black" stroke-width="1"
        d="M 445.91,392.45
           C 445.91,392.45 347.36,351.45 347.36,351.45
             347.36,351.45 9.00,394.00 9.00,394.00
             9.00,394.00 445.91,392.45 445.91,392.45 Z" />
  <path id="Sélection"
        fill="#e0e0e0" stroke="black" stroke-width="1"
        d="M 183.00,269.00
           C 176.10,271.58 170.58,272.55 164.00,276.45
             160.25,278.68 156.11,281.58 153.39,285.01
             148.03,291.78 147.10,302.77 155.04,308.01
             158.82,310.50 162.62,310.94 167.00,310.85
             167.00,310.85 179.00,310.85 179.00,310.85
             187.93,309.43 202.94,303.89 207.77,295.96
             210.44,291.59 210.00,286.89 210.00,282.00
             210.00,282.00 193.00,291.14 193.00,291.14
             189.30,292.78 184.95,294.49 181.00,295.33
             177.17,296.15 156.81,298.48 164.28,289.09
             164.28,289.09 167.02,286.47 167.02,286.47
             167.02,286.47 171.00,283.55 171.00,283.55
             181.09,277.05 189.86,277.48 200.00,274.29
             203.33,273.24 207.61,270.10 207.41,266.14
             207.27,263.36 204.23,262.67 202.00,262.30
             202.00,262.30 181.00,260.91 181.00,260.91
             178.86,260.75 173.09,260.14 173.62,256.90
             174.02,254.48 178.01,252.20 180.00,251.12
             191.47,244.92 194.46,247.32 204.00,245.00
             200.89,248.75 199.81,248.99 199.00,254.00
             199.00,254.00 210.00,249.24 210.00,249.24
             212.71,247.91 216.46,246.26 218.26,243.79
             221.04,239.98 220.87,233.01 215.94,231.03
             208.53,228.04 188.48,230.43 181.00,233.45
             171.72,237.20 158.68,245.24 160.23,257.00
             160.67,260.37 162.30,263.08 165.10,265.01
             167.02,266.33 169.76,267.23 172.00,267.84
             176.47,269.05 178.49,268.99 183.00,269.00 Z" />
  <path id="Sans nom #1"
        fill="#6351ce" stroke="black" stroke-width="1"
        d="M 205.00,1.25
           C 205.00,1.25 204.94,22.91 204.94,22.91
             204.94,22.91 204.97,43.88 204.97,43.88
             204.97,43.88 205.00,64.81 205.00,64.81
             205.00,64.81 205.03,80.22 205.03,80.22
             205.03,80.22 204.88,98.25 204.97,98.06
             205.06,97.88 205.09,123.03 205.09,123.03
             205.09,123.03 347.00,352.00 347.00,352.00
             347.00,352.00 447.00,393.00 447.00,393.00
             447.00,393.00 205.00,1.25 205.00,1.25 Z" />
</svg>
