<?xml version="1.0" encoding="UTF-8" standalone="no"?>
<!DOCTYPE svg PUBLIC "-//W3C//DTD SVG 20010904//EN"
              "http://www.w3.org/TR/2001/REC-SVG-20010904/DTD/svg10.dtd">

<svg xmlns="http://www.w3.org/2000/svg"
     width="1.54333in" height="1.85333in"
     viewBox="0 0 463 556">
  <path id="bas"
        fill="#e0e0e0" stroke="black" stroke-width="1"
        d="M 208.00,482.00
           C 204.75,489.50 192.30,511.44 186.83,516.70
             186.83,516.70 176.00,525.30 176.00,525.30
             169.31,531.04 159.67,542.21 162.31,551.94
             165.15,562.39 180.24,549.98 184.00,546.71
             193.17,538.72 197.47,530.31 204.04,524.17
             204.04,524.17 217.00,514.13 217.00,514.13
             225.37,507.85 233.56,501.37 241.00,494.00
             242.02,496.92 242.85,499.32 244.48,502.00
             254.26,518.10 267.78,500.22 276.00,492.00
             275.14,494.97 274.30,497.90 274.09,501.00
             273.59,508.42 275.94,512.64 284.00,511.89
             290.64,511.27 302.23,500.81 305.00,495.00
             306.49,499.49 307.95,510.36 315.00,508.34
             318.73,507.28 323.17,501.04 325.60,498.00
             331.31,490.87 338.70,481.23 346.00,476.00
             342.10,481.34 334.43,493.65 333.33,500.00
             332.70,503.62 332.59,508.65 337.06,509.67
             341.13,510.59 345.09,507.32 347.83,504.71
             347.83,504.71 368.00,484.00 368.00,484.00
             368.00,484.00 362.10,496.00 362.10,496.00
             358.30,506.94 362.25,515.29 375.00,511.35
             381.36,509.39 389.28,500.72 394.00,496.00
             395.23,509.58 404.89,512.80 417.00,510.67
             425.11,509.25 433.06,502.50 438.99,497.15
             441.78,494.63 445.42,491.47 447.02,488.00
             448.19,485.45 447.99,482.74 448.00,480.00
             439.81,485.79 434.76,491.79 425.00,496.20
             419.76,498.57 414.37,499.07 410.56,493.94
             409.21,492.13 408.68,490.10 408.00,488.00
             419.01,485.78 432.36,479.66 439.67,470.99
             446.19,463.25 448.37,453.18 435.00,453.00
             420.12,452.81 408.58,459.85 400.04,472.00
             395.49,478.48 395.98,480.49 393.92,484.00
             390.34,490.07 383.15,495.34 376.00,494.00
             380.35,481.78 389.64,475.88 390.51,469.00
             391.06,464.61 387.38,457.69 381.00,460.46
             375.64,462.78 361.58,476.42 356.00,481.00
             356.00,481.00 361.10,471.00 361.10,471.00
             365.87,460.35 361.66,452.59 350.00,459.48
             342.10,464.15 325.21,481.79 318.00,489.00
             320.24,484.16 323.42,481.09 326.74,477.00
             328.98,474.24 333.56,468.72 333.64,465.11
             333.78,459.19 324.13,460.89 321.04,462.89
             310.18,469.92 307.60,490.31 294.00,493.30
             289.91,494.20 288.19,491.83 289.33,488.00
             292.75,476.54 303.48,474.74 296.00,461.00
             304.35,457.90 299.98,451.01 294.00,450.15
             287.09,449.16 273.15,455.00 267.00,458.31
             259.54,462.33 251.19,468.24 246.04,475.00
             241.70,480.71 241.99,483.20 238.73,486.71
             234.30,491.48 221.10,500.06 215.00,503.00
             215.00,503.00 227.14,483.00 227.14,483.00
             227.14,483.00 233.69,471.00 233.69,471.00
             235.34,467.95 239.46,460.23 239.53,457.00
             239.65,451.39 233.01,448.26 227.00,451.70
             223.29,453.83 217.47,459.57 214.00,462.58
             214.00,462.58 185.00,486.79 185.00,486.79
             181.10,489.85 163.33,503.88 165.35,489.00
             166.13,483.17 172.50,474.44 176.30,470.00
             186.11,458.53 210.44,439.15 225.00,435.00
             221.33,438.81 219.86,439.67 219.00,445.00
             226.02,444.21 232.99,439.03 239.00,435.40
             241.76,433.73 245.57,431.58 247.40,428.91
             249.90,425.28 249.93,415.56 245.77,413.02
             243.69,411.75 239.45,411.98 237.00,412.00
             228.34,412.10 219.98,415.04 212.00,418.20
             190.78,426.61 164.16,445.71 154.87,467.00
             151.04,475.80 149.25,488.92 152.93,498.00
             155.71,504.87 161.17,509.94 169.00,508.67
             179.30,507.00 200.05,489.31 208.00,482.00 Z
           M 226.00,434.00
           C 226.00,434.00 226.00,435.00 226.00,435.00
             226.00,435.00 225.00,434.00 225.00,434.00
             225.00,434.00 226.00,434.00 226.00,434.00 Z
           M 142.01,435.74
           C 137.98,437.94 135.01,441.24 134.38,446.00
             133.63,451.67 137.94,454.19 143.00,452.26
             150.72,449.32 156.94,432.16 142.01,435.74 Z
           M 47.00,495.00
           C 47.00,495.00 48.96,503.00 48.96,503.00
             51.46,509.55 55.71,510.49 60.96,505.85
             60.96,505.85 79.00,486.00 79.00,486.00
             75.74,492.20 70.92,500.93 74.57,507.94
             76.07,510.82 77.83,511.75 81.00,511.93
             82.58,512.02 84.48,511.80 86.00,511.36
             92.02,509.63 101.38,500.52 106.00,496.00
             106.58,507.91 114.31,514.16 126.00,509.87
             132.22,507.58 146.48,494.00 149.07,488.00
             150.09,485.63 149.97,483.50 150.00,481.00
             143.80,483.43 141.26,487.00 136.00,490.84
             133.31,492.80 129.42,495.53 126.00,495.68
             121.69,495.88 118.32,492.30 119.64,488.00
             121.07,483.35 133.35,474.35 136.91,466.00
             138.76,461.66 138.84,456.42 132.98,456.07
             123.39,455.50 113.90,467.34 109.79,475.00
             109.79,475.00 105.16,484.91 105.16,484.91
             101.82,489.88 95.06,494.78 89.00,494.00
             91.28,487.58 93.51,484.36 97.66,479.00
             101.38,474.21 105.42,470.62 104.88,464.00
             104.12,454.73 96.59,456.72 91.00,460.36
             79.70,467.71 69.78,477.88 61.00,488.00
             63.85,482.46 65.74,480.70 69.58,476.00
             71.60,473.53 76.05,468.60 75.58,465.22
             74.69,458.90 64.13,462.14 61.09,464.56
             58.31,466.77 55.32,470.95 53.46,474.00
             53.46,474.00 47.37,484.71 47.37,484.71
             45.03,487.55 40.17,490.97 37.00,492.94
             26.94,499.19 18.44,501.71 14.00,488.00
             25.01,485.78 38.36,479.66 45.67,470.99
             49.03,467.01 53.99,457.97 47.77,454.17
             45.41,452.73 40.77,452.97 38.00,453.00
             22.20,453.19 5.49,467.02 1.04,482.00
             -0.20,486.18 -0.05,489.70 0.00,494.00
             0.15,505.88 5.16,511.00 17.00,511.00
             23.42,511.00 26.32,510.36 32.00,507.12
             37.97,503.72 42.18,499.78 47.00,495.00 Z
           M 39.00,462.00
           C 35.24,470.17 25.52,476.51 17.00,479.00
             20.67,470.40 29.42,462.56 39.00,462.00 Z
           M 433.00,462.00
           C 429.24,470.17 419.52,476.51 411.00,479.00
             414.67,470.40 423.42,462.56 433.00,462.00 Z
           M 286.00,466.00
           C 282.47,473.61 266.55,489.86 259.00,493.55
             256.75,494.65 255.40,494.74 253.00,495.00
             253.03,491.70 252.91,489.06 254.45,486.00
             259.07,476.82 276.72,469.94 286.00,466.00 Z
           M 17.00,479.00
           C 17.00,479.00 17.00,480.00 17.00,480.00
             17.00,480.00 16.00,479.00 16.00,479.00
             16.00,479.00 17.00,479.00 17.00,479.00 Z
           M 411.00,479.00
           C 411.00,479.00 411.00,480.00 411.00,480.00
             411.00,480.00 410.00,479.00 410.00,479.00
             410.00,479.00 411.00,479.00 411.00,479.00 Z
           M 209.00,481.00
           C 209.00,481.00 209.00,482.00 209.00,482.00
             209.00,482.00 208.00,481.00 208.00,481.00
             208.00,481.00 209.00,481.00 209.00,481.00 Z
           M 356.00,481.00
           C 356.00,481.00 356.00,482.00 356.00,482.00
             356.00,482.00 355.00,481.00 355.00,481.00
             355.00,481.00 356.00,481.00 356.00,481.00 Z
           M 82.00,482.00
           C 82.00,482.00 82.00,483.00 82.00,483.00
             82.00,483.00 81.00,482.00 81.00,482.00
             81.00,482.00 82.00,482.00 82.00,482.00 Z
           M 355.00,482.00
           C 355.00,482.00 355.00,483.00 355.00,483.00
             355.00,483.00 354.00,482.00 354.00,482.00
             354.00,482.00 355.00,482.00 355.00,482.00 Z
           M 370.00,482.00
           C 370.00,482.00 370.00,483.00 370.00,483.00
             370.00,483.00 369.00,482.00 369.00,482.00
             369.00,482.00 370.00,482.00 370.00,482.00 Z
           M 81.00,483.00
           C 81.00,483.00 81.00,484.00 81.00,484.00
             81.00,484.00 80.00,483.00 80.00,483.00
             80.00,483.00 81.00,483.00 81.00,483.00 Z
           M 369.00,483.00
           C 369.00,483.00 369.00,484.00 369.00,484.00
             369.00,484.00 368.00,483.00 368.00,483.00
             368.00,483.00 369.00,483.00 369.00,483.00 Z
           M 61.00,488.00
           C 61.00,488.00 61.00,489.00 61.00,489.00
             61.00,489.00 60.00,488.00 60.00,488.00
             60.00,488.00 61.00,488.00 61.00,488.00 Z" />
  <path id="Sans nom #3"
        fill="#6351ce" stroke="black" stroke-width="1"
        d="M 221.18,122.91
           C 221.18,122.91 219.73,0.73 219.73,0.73
             219.73,0.73 15.50,349.50 15.50,349.50
             15.50,349.50 221.18,122.91 221.18,122.91 Z" />
  <path id="Sans nom #2"
        fill="#6351ce" stroke="black" stroke-width="1"
        d="M 461.91,392.45
           C 461.91,392.45 363.36,351.45 363.36,351.45
             363.36,351.45 25.00,394.00 25.00,394.00
             25.00,394.00 461.91,392.45 461.91,392.45 Z" />
  <path id="Sélection"
        fill="#e0e0e0" stroke="black" stroke-width="1"
        d="M 199.00,269.00
           C 192.10,271.58 186.58,272.55 180.00,276.45
             176.25,278.68 172.11,281.58 169.39,285.01
             164.03,291.78 163.10,302.77 171.04,308.01
             174.82,310.50 178.62,310.94 183.00,310.85
             183.00,310.85 195.00,310.85 195.00,310.85
             203.93,309.43 218.94,303.89 223.77,295.96
             226.44,291.59 226.00,286.89 226.00,282.00
             226.00,282.00 209.00,291.14 209.00,291.14
             205.30,292.78 200.95,294.49 197.00,295.33
             193.17,296.15 172.81,298.48 180.28,289.09
             180.28,289.09 183.02,286.47 183.02,286.47
             183.02,286.47 187.00,283.55 187.00,283.55
             197.09,277.05 205.86,277.48 216.00,274.29
             219.33,273.24 223.61,270.10 223.41,266.14
             223.27,263.36 220.23,262.67 218.00,262.30
             218.00,262.30 197.00,260.91 197.00,260.91
             194.86,260.75 189.09,260.14 189.62,256.90
             190.02,254.48 194.01,252.20 196.00,251.12
             207.47,244.92 210.46,247.32 220.00,245.00
             216.89,248.75 215.81,248.99 215.00,254.00
             215.00,254.00 226.00,249.24 226.00,249.24
             228.71,247.91 232.46,246.26 234.26,243.79
             237.04,239.98 236.87,233.01 231.94,231.03
             224.53,228.04 204.48,230.43 197.00,233.45
             187.72,237.20 174.68,245.24 176.23,257.00
             176.67,260.37 178.30,263.08 181.10,265.01
             183.02,266.33 185.76,267.23 188.00,267.84
             192.47,269.05 194.49,268.99 199.00,269.00 Z" />
  <path id="Sans nom #1"
        fill="#6351ce" stroke="black" stroke-width="1"
        d="M 221.00,1.25
           C 221.00,1.25 220.94,22.91 220.94,22.91
             220.94,22.91 220.97,43.88 220.97,43.88
             220.97,43.88 221.00,64.81 221.00,64.81
             221.00,64.81 221.03,80.22 221.03,80.22
             221.03,80.22 220.88,98.25 220.97,98.06
             221.06,97.88 221.09,123.03 221.09,123.03
             221.09,123.03 363.00,352.00 363.00,352.00
             363.00,352.00 463.00,393.00 463.00,393.00
             463.00,393.00 221.00,1.25 221.00,1.25 Z" />
</svg>
